<svg width="56" height="57" viewBox="0 0 56 57" fill="none" xmlns="http://www.w3.org/2000/svg">
<path d="M56.0003 28C56.0003 20.5739 53.0503 13.452 47.7993 8.20101C42.5483 2.94999 35.4264 0 28.0003 0C20.5742 0 13.4523 2.94999 8.2013 8.20101C2.95028 13.452 0.000291843 20.5739 0.000291843 28C-0.247148 47.331 20.0067 61.068 37.607 54.3016C42.9935 52.323 47.6443 48.7411 50.9329 44.0385C54.2216 39.3359 55.9901 33.7384 56.0003 28ZM50.079 41.7085C45.6001 40.5723 41.2201 39.0767 36.9816 37.2363C37.9646 35.495 38.8127 33.6809 39.5184 31.8099C40.2157 31.8584 40.916 31.834 41.6082 31.7373C48.1869 31.0944 51.5405 26.0205 53.2211 21.686C54.0593 25.0643 54.213 28.5761 53.6734 32.0148C53.1338 35.4534 51.9117 38.7493 50.079 41.7085ZM52.1768 18.4536C51.1783 22.831 47.3956 30.0009 40.2043 29.8335C41.2314 26.3391 41.8447 22.7361 42.0314 19.0986C42.3527 14.7363 42.2875 10.3542 41.8368 6.00342C46.5137 8.95526 50.1339 13.3143 52.1768 18.4536ZM39.704 4.79419C40.5385 12.78 40.5834 20.2053 38.6353 28.0196C38.4974 28.5656 38.3307 29.1199 38.1516 29.6755C34.2856 29.0149 31.4728 26.2567 30.3553 21.9385C29.9505 20.7669 29.7172 19.543 29.6624 18.3047C29.1452 13.1735 28.1836 7.3441 24.8679 2.19537C29.9614 1.57445 35.1247 2.4789 39.704 4.79419ZM22.6948 2.54584C25.2082 6.13884 26.2063 9.44678 27.0921 14.1562C27.8987 18.0287 27.3311 19.0365 28.4401 22.5108C29.696 27.3741 33.0304 30.6766 37.4689 31.5734C36.8112 33.2417 36.0353 34.8609 35.1469 36.4186C23.8562 31.1631 14.0771 23.1389 6.71806 13.0918C10.5123 7.67631 16.2239 3.90622 22.6948 2.54584ZM5.56566 14.8826C13.0213 24.8657 22.8254 32.8545 34.1086 38.1403C33.4875 39.1304 32.8195 40.1048 32.1046 41.0633C30.5742 40.4087 28.9699 39.9424 27.327 39.6748C25.4277 39.2515 23.4866 39.0447 21.5409 39.0586C15.6283 39.0099 7.4595 37.5136 2.46866 32.8933C1.29035 26.7127 2.39054 20.3146 5.56566 14.8826ZM3.27989 36.044C6.90727 38.751 12.2794 40.1366 15.9086 40.5917C21.7636 41.4751 25.2678 40.5778 30.8334 42.6886C27.6367 46.6112 23.7806 49.9466 19.4384 52.5448C15.6602 51.2175 12.2378 49.0389 9.43598 46.1777C6.63411 43.3165 4.5278 39.8492 3.27989 36.044ZM22.032 53.3008C26.0667 50.6323 29.6615 47.3522 32.6874 43.5781C36.283 45.6656 37.6874 48.9552 36.5163 52.5603C31.8557 54.1738 26.8328 54.4306 22.032 53.3008ZM38.7873 51.6474C39.3938 47.8238 37.6149 44.2453 33.9083 41.9818C34.6365 40.9943 35.3169 39.9907 35.9495 38.9707C40.1395 40.8022 44.4666 42.3027 48.891 43.4584C46.2663 46.9952 42.791 49.8119 38.7873 51.6474Z" fill="#FF7E07"/>
</svg>
